<svg width="22" height="22" viewBox="0 0 22 22" fill="none" xmlns="http://www.w3.org/2000/svg">
<path fill-rule="evenodd" clip-rule="evenodd" d="M15.5911 0.25C17.4087 0.25 18.9584 0.79063 20.0605 1.82024C21.1676 2.85459 21.75 4.31505 21.75 6.00489V15.9951C21.75 17.6769 21.1718 19.131 20.0737 20.1638C18.9805 21.192 17.4429 21.7367 15.6396 21.7467L15.6355 21.7467L6.40843 21.75C6.40836 21.75 6.40801 21.75 6.40774 21L6.40843 21.75C4.59079 21.75 3.04062 21.2094 1.93884 20.1797C0.832035 19.1453 0.25 17.6848 0.25 15.9951V6.00489C0.25 4.32321 0.827783 2.86938 1.92571 1.83675C3.01868 0.808782 4.55599 0.264411 6.35915 0.254357L6.36334 0.254334L15.5911 0.25C15.5911 0.25 15.5907 0.25 15.5911 1V0.25ZM15.5911 1.75C15.591 1.75 15.5911 1.75 15.5911 1.75L6.36752 1.75433C6.3669 1.75434 6.36628 1.75434 6.36566 1.75434C4.85741 1.76312 3.71368 2.21433 2.95338 2.92941C2.19772 3.64012 1.75 4.67734 1.75 6.00489V15.9951C1.75 17.3298 2.20127 18.3718 2.96305 19.0838C3.72986 19.8004 4.88424 20.25 6.40774 20.25L15.6313 20.2468C15.6319 20.2467 15.6325 20.2467 15.6331 20.2467C17.1413 20.238 18.2854 19.7865 19.046 19.0711C19.8021 18.3601 20.25 17.3225 20.25 15.9951V6.00489C20.25 4.67028 19.7985 3.6283 19.0364 2.91631C18.2693 2.19962 17.1145 1.75003 15.5911 1.75ZM5.94544 6.55165C5.94544 6.13743 6.28123 5.80165 6.69544 5.80165H10.0018C10.416 5.80165 10.7518 6.13743 10.7518 6.55165C10.7518 6.96586 10.416 7.30165 10.0018 7.30165H6.69544C6.28123 7.30165 5.94544 6.96586 5.94544 6.55165ZM5.9453 11.0892C5.9453 10.675 6.28108 10.3392 6.6953 10.3392H15.3602C15.7744 10.3392 16.1102 10.675 16.1102 11.0892C16.1102 11.5034 15.7744 11.8392 15.3602 11.8392H6.6953C6.28108 11.8392 5.9453 11.5034 5.9453 11.0892ZM5.9453 15.6372C5.9453 15.223 6.28108 14.8872 6.6953 14.8872H15.3602C15.7744 14.8872 16.1102 15.223 16.1102 15.6372C16.1102 16.0514 15.7744 16.3872 15.3602 16.3872H6.6953C6.28108 16.3872 5.9453 16.0514 5.9453 15.6372Z" fill="#6C5DD3"/>
</svg>
