<svg width="12" height="13" viewBox="0 0 12 13" fill="none" xmlns="http://www.w3.org/2000/svg">
<path fill-rule="evenodd" clip-rule="evenodd" d="M10.6667 1.66666H10V0.666662C10 0.482567 9.85076 0.333328 9.66667 0.333328H9C8.81591 0.333328 8.66667 0.482567 8.66667 0.666662V1.66666H3.33333V0.666662C3.33333 0.482567 3.18409 0.333328 3 0.333328H2.33333C2.14924 0.333328 2 0.482567 2 0.666662V1.66666H1.33333C0.596954 1.66666 0 2.26362 0 2.99999V11.6667C0 12.403 0.596954 13 1.33333 13H10.6667C11.403 13 12 12.403 12 11.6667V2.99999C12 2.26362 11.403 1.66666 10.6667 1.66666ZM10.6667 11.6667H1.33333V4.33333H10.6667V11.6667ZM6.33333 6.99999H5.66667C5.48257 6.99999 5.33333 6.85076 5.33333 6.66666V5.99999C5.33333 5.8159 5.48257 5.66666 5.66667 5.66666H6.33333C6.51743 5.66666 6.66667 5.8159 6.66667 5.99999V6.66666C6.66667 6.85076 6.51743 6.99999 6.33333 6.99999ZM8.33333 6.99999H9C9.18409 6.99999 9.33333 6.85076 9.33333 6.66666V5.99999C9.33333 5.8159 9.18409 5.66666 9 5.66666H8.33333C8.14924 5.66666 8 5.8159 8 5.99999V6.66666C8 6.85076 8.14924 6.99999 8.33333 6.99999ZM3.66667 6.99999H3C2.8159 6.99999 2.66667 6.85076 2.66667 6.66666V5.99999C2.66667 5.8159 2.8159 5.66666 3 5.66666H3.66667C3.85076 5.66666 4 5.8159 4 5.99999V6.66666C4 6.85076 3.85076 6.99999 3.66667 6.99999ZM5.66667 9.66666H6.33333C6.51743 9.66666 6.66667 9.51742 6.66667 9.33333V8.66666C6.66667 8.48257 6.51743 8.33333 6.33333 8.33333H5.66667C5.48257 8.33333 5.33333 8.48257 5.33333 8.66666V9.33333C5.33333 9.51742 5.48257 9.66666 5.66667 9.66666ZM3.66667 9.66666H3C2.8159 9.66666 2.66667 9.51742 2.66667 9.33333V8.66666C2.66667 8.48257 2.8159 8.33333 3 8.33333H3.66667C3.85076 8.33333 4 8.48257 4 8.66666V9.33333C4 9.51742 3.85076 9.66666 3.66667 9.66666Z" fill="#9D9DAA"/>
</svg>
