<svg width="22" height="22" viewBox="0 0 22 22" fill="none" xmlns="http://www.w3.org/2000/svg">
<path fill-rule="evenodd" clip-rule="evenodd" d="M1.88354 2.05377C2.96018 0.898836 4.49524 0.25 6.31429 0.25H15.6857C17.509 0.25 19.0445 0.898535 20.1204 2.05412C21.1906 3.20365 21.75 4.79384 21.75 6.58516V15.4148C21.75 17.2062 21.1906 18.7964 20.1204 19.9459C19.0445 21.1015 17.509 21.75 15.6857 21.75H6.31429C4.49096 21.75 2.9555 21.1015 1.87964 19.9459C0.809425 18.7964 0.25 17.2062 0.25 15.4148V6.58516C0.25 4.79292 0.812353 3.20285 1.88354 2.05377ZM2.98074 3.07659C2.21146 3.90181 1.75 5.10432 1.75 6.58516V15.4148C1.75 16.8966 2.20962 18.099 2.9775 18.9238C3.73974 19.7425 4.86142 20.25 6.31429 20.25H15.6857C17.1386 20.25 18.2603 19.7425 19.0225 18.9238C19.7904 18.099 20.25 16.8966 20.25 15.4148V6.58516C20.25 5.1034 19.7904 3.90101 19.0225 3.07623C18.2603 2.25751 17.1386 1.75 15.6857 1.75H6.31429C4.86666 1.75 3.74458 2.25721 2.98074 3.07659ZM11.0379 5.16908C11.4521 5.16908 11.7879 5.50486 11.7879 5.91908V16.0618C11.7879 16.476 11.4521 16.8118 11.0379 16.8118C10.6237 16.8118 10.2879 16.476 10.2879 16.0618V5.91908C10.2879 5.50486 10.6237 5.16908 11.0379 5.16908ZM6.3715 8.45169C6.78571 8.45169 7.1215 8.78748 7.1215 9.20169V16.0618C7.1215 16.476 6.78571 16.8118 6.3715 16.8118C5.95728 16.8118 5.6215 16.476 5.6215 16.0618V9.20169C5.6215 8.78748 5.95728 8.45169 6.3715 8.45169ZM15.6284 12.0767C16.0427 12.0767 16.3784 12.4125 16.3784 12.8267V16.0618C16.3784 16.476 16.0427 16.8118 15.6284 16.8118C15.2142 16.8118 14.8784 16.476 14.8784 16.0618V12.8267C14.8784 12.4125 15.2142 12.0767 15.6284 12.0767Z" fill="#BBBBC4"/>
</svg>
