<svg width="20" height="22" viewBox="0 0 20 22" fill="none" xmlns="http://www.w3.org/2000/svg">
<path d="M8.66378 1.51238C9.03097 1.18248 9.50717 0.999976 10.0008 0.999976C10.4944 0.999976 10.9706 1.18248 11.3378 1.51238L18.673 8.10338C18.8815 8.29093 19.0483 8.52024 19.1625 8.77642C19.2767 9.03261 19.3358 9.30994 19.3358 9.59042V18.9995C19.3358 19.53 19.125 20.0389 18.7499 20.414C18.3747 20.7892 17.8659 21 17.3353 21H14.0011C13.4706 21 12.9617 20.7892 12.5866 20.414C12.2114 20.0389 12.0006 19.53 12.0006 18.9995V14.3316C12.0006 14.1548 11.9304 13.9852 11.8053 13.8601C11.6803 13.735 11.5106 13.6648 11.3338 13.6648H8.66645C8.4896 13.6648 8.31998 13.735 8.19493 13.8601C8.06987 13.9852 7.99962 14.1548 7.99962 14.3316V18.9995C7.99962 19.53 7.78885 20.0389 7.41368 20.414C7.03851 20.7892 6.52968 21 5.99911 21H2.66493C2.13437 21 1.62553 20.7892 1.25036 20.414C0.875194 20.0389 0.664427 19.53 0.664427 18.9995V9.59042C0.664427 9.02361 0.904488 8.48348 1.3286 8.10338L8.66378 1.51238ZM10.4456 2.50463C10.3232 2.39479 10.1646 2.33403 10.0001 2.33403C9.83568 2.33403 9.67704 2.39479 9.55468 2.50463L2.21949 9.09563C2.15 9.15801 2.09439 9.23428 2.05625 9.31952C2.01811 9.40475 1.9983 9.49705 1.9981 9.59042V18.9995C1.9981 19.1763 2.06835 19.3459 2.19341 19.471C2.31847 19.596 2.48808 19.6663 2.66493 19.6663H5.99911C6.17597 19.6663 6.34558 19.596 6.47063 19.471C6.59569 19.3459 6.66595 19.1763 6.66595 18.9995V14.3316C6.66595 13.8011 6.87671 13.2922 7.25188 12.9171C7.62705 12.5419 8.13588 12.3311 8.66645 12.3311H11.3338C11.8644 12.3311 12.3732 12.5419 12.7484 12.9171C13.1235 13.2922 13.3343 13.8011 13.3343 14.3316V18.9995C13.3343 19.1763 13.4046 19.3459 13.5296 19.471C13.6547 19.596 13.8243 19.6663 14.0011 19.6663H17.3353C17.5122 19.6663 17.6818 19.596 17.8068 19.471C17.9319 19.3459 18.0021 19.1763 18.0021 18.9995V9.59042C18.0019 9.49705 17.9821 9.40475 17.944 9.31952C17.9059 9.23428 17.8502 9.15801 17.7808 9.09563L10.4456 2.50463Z" fill="#BBBBC4"/>
</svg>
