<svg width="105" height="31" viewBox="0 0 105 31" fill="none" xmlns="http://www.w3.org/2000/svg">
<g clip-path="url(#clip0_1_348)">
<path d="M17.5071 8.03906C17.5071 12.5853 15.6626 16.9453 12.3794 20.16C9.09618 23.3747 4.64317 25.1807 0 25.1807V27.9105C0 28.6856 0.314485 29.429 0.874274 29.9771C1.43406 30.5252 2.19329 30.8331 2.98495 30.8331H20.2918C20.6839 30.8333 21.0722 30.7578 21.4345 30.611C21.7967 30.4642 22.1259 30.2489 22.4032 29.9775C22.6805 29.7061 22.9005 29.3839 23.0506 29.0292C23.2006 28.6745 23.2779 28.2944 23.2779 27.9105V10.9628C23.2779 10.1874 22.9633 9.4437 22.4033 8.8954C21.8433 8.34709 21.0838 8.03906 20.2918 8.03906H17.5071Z" fill="#6C5DD3"/>
<path d="M0.00235387 18.5897C2.86023 18.5897 5.60105 17.4782 7.62187 15.4995C9.64269 13.5209 10.778 10.8373 10.778 8.03906H2.98731C2.59522 8.03906 2.20698 8.11469 1.84476 8.26164C1.48254 8.40858 1.15343 8.62396 0.87624 8.89546C0.599047 9.16697 0.379191 9.48929 0.229247 9.84401C0.0793029 10.1987 0.00221014 10.5789 0.00235387 10.9628V18.5897Z" fill="#B5AEE9"/>
<path d="M14.1422 7.42194C16.0005 7.42194 17.5069 5.94699 17.5069 4.12754C17.5069 2.30809 16.0005 0.83313 14.1422 0.83313C12.284 0.83313 10.7776 2.30809 10.7776 4.12754C10.7776 5.94699 12.284 7.42194 14.1422 7.42194Z" fill="#FF8933"/>
</g>
<defs>
<clipPath id="clip0_1_348">
<rect width="105" height="30" fill="white" transform="translate(0 0.833008)"/>
</clipPath>
</defs>
</svg>
