<svg width="22" height="22" viewBox="0 0 22 22" fill="none" xmlns="http://www.w3.org/2000/svg">
<path fill-rule="evenodd" clip-rule="evenodd" d="M18.9648 1.75C18.2734 1.75 17.7129 2.3105 17.7129 3.00191C17.7129 3.69332 18.2734 4.25381 18.9648 4.25381C19.6563 4.25381 20.2168 3.69332 20.2168 3.00191C20.2168 2.3105 19.6563 1.75 18.9648 1.75ZM16.2129 3.00191C16.2129 1.48207 17.445 0.25 18.9648 0.25C20.4847 0.25 21.7168 1.48207 21.7168 3.00191C21.7168 4.52174 20.4847 5.75381 18.9648 5.75381C17.445 5.75381 16.2129 4.52174 16.2129 3.00191ZM1.84781 2.86976C2.88263 1.75351 4.36013 1.12703 6.11446 1.12703H13.6836C14.0978 1.12703 14.4336 1.46281 14.4336 1.87703C14.4336 2.29124 14.0978 2.62703 13.6836 2.62703H6.11446C4.73247 2.62703 3.66946 3.11113 2.94784 3.88954C2.22027 4.67436 1.78343 5.82023 1.78343 7.23451V15.6521C1.78343 17.0701 2.21293 18.2127 2.93428 18.9931C3.64904 19.7663 4.71038 20.25 6.11446 20.25H15.0754C16.4584 20.25 17.5214 19.7676 18.2426 18.9916C18.9696 18.2093 19.4064 17.0662 19.4064 15.6521V8.32126C19.4064 7.90705 19.7422 7.57126 20.1564 7.57126C20.5706 7.57126 20.9064 7.90705 20.9064 8.32126V15.6521C20.9064 17.3742 20.3708 18.9051 19.3414 20.0127C18.3062 21.1266 16.8287 21.75 15.0754 21.75H6.11446C4.34408 21.75 2.86492 21.1279 1.83277 20.0112C0.807225 18.9017 0.283432 17.3703 0.283432 15.6521V7.23451C0.283432 5.51247 0.818946 3.9796 1.84781 2.86976ZM15.8684 8.23365C16.1959 8.48735 16.2556 8.95845 16.0019 9.28588L12.9514 13.223C12.829 13.3809 12.6487 13.4835 12.4505 13.5079C12.2522 13.5324 12.0523 13.4768 11.8952 13.3534L8.93522 11.0282L6.27993 14.4793C6.02735 14.8076 5.55645 14.8689 5.22817 14.6164C4.89988 14.3638 4.83851 13.8929 5.0911 13.5646L8.20836 9.51311C8.33045 9.35443 8.51092 9.25115 8.70959 9.22628C8.90825 9.2014 9.10862 9.25699 9.26607 9.38067L12.2281 11.7074L14.8162 8.36716C15.0699 8.03973 15.541 7.97996 15.8684 8.23365Z" fill="#BBBBC4"/>
</svg>
