<svg width="20" height="22" viewBox="0 0 20 22" fill="none" xmlns="http://www.w3.org/2000/svg">
<path fill-rule="evenodd" clip-rule="evenodd" d="M18.9841 6.56191L18.3365 5.4381C17.7886 4.48718 16.5745 4.15914 15.6222 4.70476C15.169 4.97178 14.6281 5.04753 14.1189 4.91532C13.6097 4.78311 13.1741 4.4538 12.908 4C12.7368 3.71156 12.6448 3.38302 12.6413 3.04762C12.6567 2.50988 12.4539 1.98879 12.0789 1.60305C11.7039 1.21731 11.1888 0.999778 10.6508 1H9.34605C8.81902 0.999994 8.3137 1.21001 7.94193 1.58357C7.57015 1.95713 7.36256 2.46345 7.3651 2.99048C7.34948 4.07861 6.46287 4.95249 5.37462 4.95238C5.03922 4.9489 4.71068 4.85691 4.42224 4.68571C3.47003 4.14009 2.25584 4.46813 1.70796 5.41905L1.01272 6.56191C0.465493 7.51163 0.789071 8.72505 1.73653 9.27619C2.35239 9.63175 2.73178 10.2889 2.73178 11C2.73178 11.7111 2.35239 12.3682 1.73653 12.7238C0.790274 13.2712 0.466343 14.4817 1.01272 15.4286L1.66986 16.5619C1.92657 17.0251 2.35728 17.3669 2.86669 17.5117C3.37609 17.6565 3.92219 17.5923 4.38415 17.3333C4.83827 17.0683 5.37943 16.9957 5.88734 17.1317C6.39525 17.2676 6.82782 17.6008 7.08891 18.0571C7.2601 18.3456 7.35209 18.6741 7.35557 19.0095C7.35557 20.1088 8.24674 21 9.34605 21H10.6508C11.7464 21 12.636 20.1146 12.6413 19.019C12.6387 18.4904 12.8476 17.9826 13.2215 17.6088C13.5953 17.2349 14.1031 17.026 14.6318 17.0286C14.9664 17.0375 15.2935 17.1291 15.5841 17.2952C16.5339 17.8425 17.7473 17.5189 18.2984 16.5714L18.9841 15.4286C19.2496 14.973 19.3224 14.4304 19.1866 13.9209C19.0507 13.4115 18.7174 12.9772 18.2603 12.7143C17.8033 12.4514 17.47 12.0171 17.3341 11.5076C17.1983 10.9982 17.2711 10.4556 17.5365 10C17.7091 9.69865 17.959 9.44879 18.2603 9.27619C19.2021 8.72535 19.5249 7.51902 18.9841 6.57143V6.56191Z" stroke="#BBBBC4" stroke-width="1.5" stroke-linecap="round" stroke-linejoin="round"/>
<path d="M12.7459 11C12.7459 12.5149 11.5179 13.7429 10.0031 13.7429C8.48825 13.7429 7.26023 12.5149 7.26023 11C7.26023 9.48519 8.48825 8.25717 10.0031 8.25717C11.5179 8.25717 12.7459 9.48519 12.7459 11Z" stroke="#BBBBC4" stroke-width="1.5" stroke-linecap="round" stroke-linejoin="round"/>
</svg>
